# xmcd
#
# Track frame offsets: 
#        150
#        19475
#        34730
#        49265
#        75581
#        98393
#        109865
#        131165
#        152989
#        164631
#        184890
#
# Disc length: 2661 seconds
#
# Revision: 1
# Processed by: cddbd v1.5.2PL0 Copyright (c) Steve Scherf et al.
# Submitted via: ExactAudioCopy v0.99pb5
#
DISCID=910a630b
DTITLE=Candi Staton - His Hands
DYEAR=2006
DGENRE=Soul
TTITLE0=You Don't Have Far To Go
TTITLE1=When Hearts Grow Cold
TTITLE2=It's Not Easy Letting Go
TTITLE3=His Hands
TTITLE4=How Do I Get Over You?
TTITLE5=You Never Really Wanted Me
TTITLE6=I'll Sing A Love Song To You
TTITLE7=In Name Only
TTITLE8=Running Out Of Love
TTITLE9=Cry To Me
TTITLE10=When Will I?
EXTD=
EXTT0=
EXTT1=
EXTT2=
EXTT3=
EXTT4=
EXTT5=
EXTT6=
EXTT7=
EXTT8=
EXTT9=
EXTT10=
PLAYORDER=
